<?xml version="1.0" encoding="utf-8"?>
<!-- Generator: Adobe Illustrator 24.3.0, SVG Export Plug-In . SVG Version: 6.00 Build 0)  -->
<svg version="1.1" id="Layer_1" xmlns="http://www.w3.org/2000/svg" xmlns:xlink="http://www.w3.org/1999/xlink" x="0px" y="0px"
	 viewBox="0 0 1366 375" style="enable-background:new 0 0 1366 375;" xml:space="preserve">
<style type="text/css">
	.st0{fill:#FFFFFF;}
	.st1{fill:#12BB91;}
</style>
<g>
	<g>
		<g>
			<path class="st0" d="M177.24,370.05h-70.7V86.52H0V15.57h283.53v70.95H177.24V370.05z"/>
			<path class="st0" d="M500.32,196.88v173.17h67.98V170.05L500.32,196.88z"/>
			<path class="st1" d="M568.3,126.88V44.07L500.32,70.9v82.81L568.3,126.88z"/>
			<path class="st0" d="M1027.34,305.29c2.63,0.82,5.27,1.36,7.91,1.6c2.63,0.25,5.27,0.37,7.91,0.37c6.59,0,12.94-0.91,19.04-2.72
				c6.09-1.81,11.82-4.41,17.18-7.79c5.35-3.38,10.13-7.5,14.34-12.36c4.2-4.86,7.62-10.26,10.26-16.2l49.44,49.69
				c-6.27,8.91-13.47,16.89-21.63,23.98c-8.16,7.09-16.98,13.1-26.45,18.04c-9.48,4.95-19.45,8.7-29.91,11.26
				c-10.47,2.55-21.22,3.82-32.26,3.82c-18.62,0-36.13-3.46-52.53-10.38c-16.4-6.92-30.74-16.56-43.01-28.92
				c-12.28-12.36-21.96-27.06-29.05-44.13c-7.09-17.06-10.63-35.8-10.63-56.24c0-20.93,3.54-40.05,10.63-57.35
				c7.08-17.3,16.77-32.05,29.05-44.25c12.28-12.19,26.61-21.66,43.01-28.42c16.4-6.76,33.9-10.14,52.53-10.14
				c11.04,0,21.84,1.32,32.38,3.95c10.54,2.64,20.56,6.44,30.03,11.38c9.48,4.94,18.33,11,26.57,18.17
				c8.24,7.16,15.49,15.2,21.75,24.1L1027.34,305.29z M1061.95,166.12c-3.13-1.15-6.22-1.89-9.27-2.23
				c-3.05-0.32-6.22-0.49-9.52-0.49c-9.23,0-17.92,1.69-26.08,5.07c-8.16,3.38-15.24,8.2-21.26,14.46
				c-6.02,6.26-10.75,13.8-14.21,22.62c-3.46,8.82-5.19,18.75-5.19,29.79c0,2.47,0.12,5.28,0.37,8.41c0.25,3.13,0.66,6.3,1.24,9.51
				c0.58,3.22,1.27,6.3,2.1,9.27c0.82,2.96,1.89,5.61,3.21,7.91L1061.95,166.12z"/>
			<path class="st0" d="M682.01,0"/>
			<path class="st0" d="M468.93,154.02l-109.38,42.4c-0.91,3.88-1.37,7.9-1.37,12.06v161.57H290.7V105.31h16.31l22.25,31.39
				l139.66-54.13V154.02z"/>
			<path class="st0" d="M1365.5,154.22l-108.88,42.2c-0.91,3.88-1.37,7.9-1.37,12.06v161.57h-67.49V105.31h16.31l22.25,31.39
				L1366,82.58L1365.5,154.22z"/>
			<path class="st0" d="M682.01,0"/>
		</g>
	</g>
	<path class="st1" d="M777.16,235.33c0-4.19-0.73-8.1-2.18-11.72c-1.46-3.62-3.43-6.74-5.94-9.38s-5.43-4.7-8.77-6.19
		c-3.35-1.49-6.91-2.23-10.7-2.23c-3.79,0-7.35,0.83-10.7,2.48c-3.35,1.66-6.27,3.86-8.77,6.59s-4.46,5.88-5.88,9.43
		c-1.42,3.55-2.13,7.22-2.13,11c0,4.19,0.71,8.08,2.13,11.66c1.42,3.58,3.38,6.69,5.88,9.33s5.43,4.72,8.77,6.24
		s6.91,2.28,10.7,2.28c3.79,0,7.35-0.76,10.7-2.28s6.27-3.6,8.77-6.24s4.48-5.75,5.94-9.33
		C776.43,243.41,777.16,239.53,777.16,235.33z"/>
	<path class="st0" d="M874.08,179.34c-7.09-17.06-16.73-31.85-28.92-44.37c-12.19-12.52-26.49-22.29-42.89-29.29
		c-16.4-7-33.99-10.51-52.78-10.51c-6.1,0-12.36,0.61-18.79,1.85s-12.65,3.01-18.66,5.31c-6.02,2.31-11.62,5.28-16.81,8.9
		c-5.19,3.62-9.6,7.75-13.22,12.36v-0.01c0,0,0,0,0,0V0L614.28,26.6v97.01v111.73v0.04c0,20.42,3.55,39.15,10.62,56.2
		c7.09,17.06,16.77,31.76,29.05,44.12c8.39,8.44,17.81,15.52,28.12,21.43c1.9,1.09,3.84,2.12,5.79,3.14
		c2.98,1.52,5.97,3.03,9.1,4.36c16.05,6.77,33.18,10.18,51.37,10.33c0.39,0,0.77,0.05,1.16,0.05c16.8,0,32.59-2.86,47.49-8.26
		c1.76-0.64,3.56-1.16,5.29-1.87c1.39-0.57,2.68-1.28,4.04-1.89c10.67-4.8,20.5-10.72,29.31-17.96c3.31-2.72,6.49-5.62,9.54-8.69
		c12.19-12.27,21.84-26.98,28.92-44.13c1.6-3.89,2.97-7.89,4.22-11.97c0.13-0.42,0.31-0.81,0.43-1.23c0.08-0.27,0.12-0.55,0.2-0.82
		c1.22-4.26,2.29-8.6,3.13-13.06c1.77-9.47,2.66-19.4,2.66-29.78C884.71,215.07,881.17,196.4,874.08,179.34z M811.42,263.76
		c-0.92,2.26-1.93,4.43-3.01,6.53c-3.12,6.04-6.93,11.45-11.45,16.21c-6.1,6.44-13.22,11.5-21.38,15.21
		c-8.16,3.71-16.85,5.56-26.08,5.56c0,0,0,0,0,0s0,0,0,0c-0.22,0-0.43-0.03-0.64-0.03c-8.99-0.09-17.47-1.91-25.43-5.53
		c-8.16-3.71-15.29-8.77-21.38-15.21c-6.1-6.42-10.88-14.01-14.34-22.74c-3.46-8.73-5.19-18.21-5.19-28.43
		c0-9.22,1.73-18.17,5.19-26.82c3-7.49,7.05-14.2,12.03-20.22c0.77-0.93,1.49-1.88,2.31-2.77c2.37-2.59,4.95-4.93,7.63-7.12
		c0.97-0.79,1.93-1.6,2.94-2.34c3.38-2.48,6.97-4.7,10.81-6.6c8.16-4.04,16.85-6.06,26.08-6.06c9.23,0,17.92,1.82,26.08,5.44
		c4.08,1.81,7.9,3.98,11.46,6.49c0.08,0.05,0.15,0.12,0.22,0.18c3.47,2.47,6.71,5.27,9.69,8.41c6.1,6.43,10.92,14.05,14.47,22.87
		c3.54,8.82,5.31,18.34,5.31,28.55C816.73,245.55,814.96,255.02,811.42,263.76z"/>
</g>
</svg>
